# xmcd CD database file
#
# Track frame offsets:
#	150
#	14762
#	31807
#	49402
#	66908
#	84763
#
# Disc length: 1355 seconds
#
# Revision: 0
# Processed by: cddbd v1.5.2PL0 Copyright (c) Steve Scherf et al.
# Submitted via: CDex 1.70beta3
#
DISCID=47054906
DTITLE=Jimmy Jones - Jimmy Jones Trio
DYEAR=1954
DGENRE=Jazz
TTITLE0=Easy To Love
TTITLE1=Little Girl Blue
TTITLE2=Lush Life
TTITLE3=Squeeze Me
TTITLE4=My Funny Valentine
TTITLE5=Good Morning Heartache
EXTD=YEAR: 1954
EXTT0=
EXTT1=
EXTT2=
EXTT3=
EXTT4=
EXTT5=
PLAYORDER=
